<svg version="1.0" xmlns="http://www.w3.org/2000/svg"
 width="124.000000pt" height="137.000000pt" viewBox="0 0 124.000000 137.000000"
 preserveAspectRatio="xMidYMid meet">
<metadata>
Created by potrace 1.10, written by Peter Selinger 2001-2011
</metadata>
<g transform="translate(0.000000,137.000000) scale(0.050000,-0.050000)"
fill="#F56204" stroke="none">
<path d="M1004 2595 c5 -14 76 -221 158 -460 81 -239 155 -435 163 -435 8 0
82 135 165 300 83 165 155 300 160 300 5 0 77 -135 160 -300 83 -165 157 -300
165 -300 9 0 82 196 164 435 81 239 152 446 157 460 6 20 -131 25 -646 25
-515 0 -652 -5 -646 -25z"/>
<path d="M327 1560 c-156 -63 -131 -314 35 -350 212 -47 327 242 135 341 -62
32 -107 35 -170 9z"/>
<path d="M1122 1528 c-80 -67 -86 -178 -14 -261 110 -128 312 -42 312 132 0
93 -88 181 -180 181 -32 0 -84 -23 -118 -52z"/>
<path d="M1956 1539 c-103 -78 -89 -251 26 -310 198 -103 368 143 208 303 -60
60 -159 63 -234 7z"/>
<path d="M1560 1348 c0 -121 -154 -268 -282 -268 -65 0 -83 -12 -155 -106
-119 -154 -342 -317 -497 -363 -107 -32 -266 188 -266 368 0 129 -53 141 -109
26 -226 -469 -108 -840 274 -862 167 -9 252 17 610 188 329 158 392 179 639
220 328 54 475 155 500 347 17 123 -9 229 -50 210 -191 -88 -464 46 -464 227
0 41 -10 45 -100 45 -78 0 -100 -7 -100 -32z"/>
</g>
</svg>
