<svg version="1.0" xmlns="http://www.w3.org/2000/svg"
 width="600.000000pt" height="700.000000pt" viewBox="0 0 636.000000 711.000000"
 preserveAspectRatio="xMidYMid meet">
<metadata>
Created by potrace 1.10, written by Peter Selinger 2001-2011
</metadata>
<g transform="translate(0.000000,711.000000) scale(0.100000,-0.100000)"
fill="#F56204" stroke="none">
<path d="M2819 7101 c19 -12 -36 -20 -214 -31 -160 -9 -298 -25 -403 -46 -40
-8 -87 -14 -105 -14 -18 0 -54 -7 -81 -15 -27 -8 -65 -15 -83 -15 -19 0 -43
-5 -53 -10 -10 -6 -45 -14 -77 -19 -63 -10 -130 -27 -178 -43 -16 -6 -48 -14
-70 -18 -22 -4 -56 -13 -75 -20 -63 -22 -95 -32 -125 -40 -46 -13 -97 -31
-127 -46 -14 -8 -33 -14 -41 -14 -9 0 -28 -6 -44 -14 -15 -8 -46 -21 -68 -29
-64 -24 -69 -26 -85 -35 -8 -5 -33 -17 -55 -27 -22 -9 -47 -21 -55 -26 -8 -5
-22 -12 -30 -15 -8 -3 -22 -9 -30 -14 -8 -5 -37 -21 -65 -35 -27 -14 -63 -34
-80 -45 -16 -11 -39 -24 -50 -30 -31 -16 -59 -34 -66 -43 -3 -5 -22 -18 -42
-30 -107 -66 -348 -305 -381 -377 -3 -8 -15 -28 -26 -45 -11 -16 -23 -37 -26
-45 -3 -8 -12 -28 -19 -45 -51 -117 -70 -219 -62 -336 11 -150 29 -217 86
-323 47 -87 55 -100 67 -111 6 -5 26 -30 44 -55 43 -58 152 -167 210 -210 25
-18 50 -39 55 -45 14 -15 159 -113 200 -135 11 -6 47 -26 80 -45 33 -19 67
-37 75 -41 8 -3 22 -10 30 -15 8 -5 22 -12 30 -15 8 -3 22 -10 30 -15 8 -5 22
-12 30 -15 24 -9 83 -35 113 -50 16 -8 35 -14 42 -14 7 0 27 -7 44 -15 17 -8
45 -22 62 -30 17 -8 41 -15 53 -15 12 0 31 -7 42 -15 10 -8 30 -15 42 -15 13
0 36 -6 50 -14 25 -13 64 -24 152 -46 19 -4 49 -13 65 -18 43 -15 113 -32 165
-41 25 -5 65 -13 90 -19 71 -18 149 -33 226 -42 40 -6 84 -14 99 -20 14 -5 50
-10 78 -10 29 -1 81 -7 117 -15 36 -8 94 -14 130 -15 36 0 121 -7 190 -15 88
-10 228 -15 470 -15 242 0 382 5 470 15 69 8 154 15 190 15 36 1 94 7 130 15
36 8 88 15 115 15 28 0 75 7 105 15 30 8 69 15 85 15 27 0 83 11 215 42 25 6
65 14 90 19 53 9 123 26 165 41 17 6 44 12 60 15 17 3 44 11 62 19 17 8 42 14
55 14 12 0 32 7 42 15 11 8 31 15 45 15 14 0 35 7 45 15 11 8 30 15 42 15 12
0 35 6 51 14 15 8 48 22 73 31 69 27 175 72 200 87 8 4 22 11 30 14 8 3 22 10
30 15 8 5 22 12 30 15 8 3 22 10 30 15 8 5 22 12 30 15 8 3 22 10 30 15 8 5
24 14 35 19 11 6 34 19 50 30 17 11 37 23 45 27 8 3 31 19 51 35 20 15 41 28
46 28 5 0 22 13 39 28 16 15 49 43 74 62 74 56 159 141 208 208 25 34 49 62
53 62 4 0 9 8 13 18 3 9 15 31 26 47 11 17 23 37 26 45 3 8 12 29 19 45 30 69
44 113 50 158 4 28 12 50 21 54 20 8 21 193 0 193 -10 0 -16 17 -21 53 -17
138 -130 331 -284 486 -61 60 -245 207 -281 225 -23 11 -56 31 -71 43 -18 13
-106 62 -189 103 -36 18 -72 36 -80 41 -8 5 -22 12 -30 15 -18 7 -64 26 -110
46 -19 9 -55 23 -80 33 -25 9 -60 23 -78 31 -18 8 -41 14 -50 14 -10 0 -27 7
-38 15 -10 8 -29 15 -41 15 -12 0 -37 6 -55 14 -31 13 -72 25 -201 60 -108 29
-143 38 -187 45 -25 5 -65 13 -90 19 -126 30 -308 61 -420 72 -41 4 -113 12
-160 19 -47 6 -143 14 -215 19 -96 5 -129 10 -127 20 1 9 -77 12 -365 12 -222
0 -362 -4 -354 -9z"/>
<path d="M3 4124 c3 -438 8 -718 15 -749 38 -182 194 -406 390 -562 26 -20 52
-42 57 -47 6 -6 18 -15 27 -21 9 -5 49 -32 89 -60 74 -50 129 -82 224 -130 28
-14 57 -30 65 -35 8 -5 42 -21 75 -35 33 -15 78 -35 101 -46 22 -10 47 -19 55
-19 8 0 23 -7 33 -15 11 -8 29 -15 40 -15 12 0 30 -7 40 -15 11 -8 29 -15 41
-15 12 0 30 -7 41 -15 10 -8 29 -15 41 -15 12 0 37 -6 55 -14 53 -22 134 -46
154 -46 11 0 32 -7 48 -15 15 -8 39 -15 51 -15 13 0 36 -5 52 -11 15 -7 48
-15 73 -19 25 -4 65 -12 90 -18 174 -42 472 -87 493 -75 4 2 7 22 7 44 0 36 9
85 41 214 6 22 14 56 19 75 11 46 29 98 46 133 8 16 14 37 14 47 0 9 7 23 15
30 8 7 15 19 15 26 0 16 90 201 121 249 10 17 23 39 29 50 15 29 32 56 63 96
15 20 27 40 27 43 0 9 148 206 172 229 10 10 25 29 34 42 9 14 23 25 30 25 12
0 14 -110 16 -677 l3 -678 113 -3 112 -3 0 745 c0 410 4 747 8 750 21 13 412
-423 412 -459 0 -4 11 -21 24 -38 38 -50 123 -211 171 -322 39 -92 45 -107 45
-123 0 -10 4 -22 10 -28 5 -5 14 -30 19 -54 6 -25 14 -63 20 -85 34 -138 41
-181 41 -243 0 -44 5 -73 13 -80 22 -17 284 19 497 70 25 6 63 14 85 19 61 12
218 53 270 71 17 5 46 14 65 18 39 9 87 25 138 46 18 8 40 14 50 14 9 0 26 7
36 15 11 8 28 15 37 15 10 0 30 6 46 14 15 8 45 21 66 30 80 34 105 45 177 81
76 37 96 47 128 65 9 6 26 15 37 20 11 6 34 19 50 30 17 11 37 23 45 27 8 3
31 19 51 35 20 15 41 28 46 28 5 0 22 13 39 28 16 15 49 43 74 62 72 55 149
130 198 195 25 33 50 65 56 70 16 15 30 40 69 120 53 108 67 144 67 169 0 45
13 86 26 86 12 0 14 110 14 685 0 541 -3 685 -12 685 -7 0 -42 -28 -78 -61
-64 -61 -253 -209 -266 -209 -3 0 -23 -12 -43 -27 -40 -31 -66 -48 -96 -63
-11 -6 -47 -26 -80 -45 -57 -33 -232 -120 -303 -150 -18 -8 -47 -21 -65 -28
-17 -8 -49 -22 -70 -31 -21 -9 -45 -16 -55 -16 -9 0 -26 -7 -36 -15 -11 -8
-28 -15 -37 -15 -10 0 -30 -6 -46 -14 -15 -8 -55 -22 -88 -32 -33 -9 -71 -21
-85 -27 -14 -5 -41 -13 -60 -18 -59 -13 -123 -30 -160 -42 -19 -6 -53 -14 -75
-18 -22 -4 -58 -12 -80 -18 -39 -10 -128 -28 -250 -51 -33 -6 -91 -16 -130
-21 -38 -5 -90 -13 -115 -19 -25 -5 -70 -9 -100 -10 -30 0 -73 -5 -95 -10
-177 -45 -1252 -45 -1545 -1 -89 14 -222 32 -300 41 -36 4 -85 12 -110 18 -59
14 -152 32 -217 42 -28 4 -66 13 -85 18 -50 15 -118 32 -163 41 -22 4 -50 13
-62 19 -12 7 -32 12 -45 12 -13 0 -36 7 -52 15 -15 8 -37 15 -47 15 -10 0 -33
6 -51 14 -47 19 -98 36 -137 46 -18 5 -38 13 -44 19 -6 6 -20 11 -32 11 -12 0
-30 7 -41 15 -10 8 -29 15 -40 15 -12 0 -27 7 -34 15 -7 8 -23 15 -35 15 -12
0 -28 7 -35 15 -7 8 -19 15 -27 15 -8 0 -27 6 -41 14 -15 8 -61 31 -102 51
-41 21 -102 52 -135 71 -33 18 -67 37 -75 41 -43 22 -250 166 -250 174 0 5 -5
9 -11 9 -12 0 -104 74 -149 119 -14 14 -36 35 -48 45 l-23 20 4 -700z"/>
<path d="M3 2053 c3 -384 8 -718 12 -743 4 -25 14 -54 21 -65 8 -11 14 -29 14
-41 0 -12 7 -27 15 -34 8 -7 15 -21 15 -31 0 -10 5 -21 11 -24 5 -4 14 -17 20
-28 45 -106 277 -346 410 -426 21 -12 39 -27 39 -32 0 -5 5 -9 10 -9 6 0 29
-12 53 -27 63 -41 75 -48 162 -93 44 -23 87 -45 95 -49 8 -5 33 -17 55 -26 22
-10 47 -22 55 -27 16 -9 21 -11 85 -35 22 -8 53 -21 68 -29 16 -8 35 -14 44
-14 8 0 27 -6 41 -14 30 -15 81 -33 127 -46 17 -5 46 -14 65 -20 19 -7 49 -16
65 -22 17 -6 48 -14 70 -18 22 -4 54 -12 70 -18 48 -16 115 -33 178 -43 32 -5
67 -13 77 -19 10 -5 33 -10 50 -10 18 0 59 -7 93 -15 85 -19 174 -33 292 -45
55 -6 107 -13 115 -16 62 -25 868 -42 1165 -25 215 13 412 33 540 57 44 8 94
14 110 14 17 0 52 7 79 15 27 8 65 15 83 15 19 0 42 4 52 10 10 5 43 14 72 19
107 20 165 34 196 47 17 8 42 14 56 14 14 0 38 7 53 15 16 8 40 15 54 15 15 0
30 4 35 9 6 6 28 14 50 20 22 5 65 19 95 31 30 12 64 24 75 27 21 5 68 25 118
49 16 8 37 14 47 14 9 0 23 7 30 15 7 8 18 15 24 15 9 0 246 117 294 145 9 6
50 33 90 60 40 28 82 55 94 61 63 36 328 295 328 321 0 3 13 22 28 42 28 35
92 158 92 175 0 4 6 22 14 39 8 18 17 58 21 90 4 36 12 60 21 64 12 4 14 105
14 674 0 529 -3 669 -12 669 -7 0 -35 -21 -63 -46 -27 -25 -76 -66 -108 -90
-31 -25 -72 -59 -89 -75 -18 -16 -36 -29 -41 -29 -5 0 -26 -13 -47 -30 -21
-17 -41 -30 -45 -30 -4 0 -24 -13 -44 -28 -20 -16 -43 -32 -51 -36 -8 -4 -42
-22 -75 -41 -33 -18 -94 -50 -135 -70 -41 -20 -82 -41 -90 -46 -8 -5 -22 -12
-30 -15 -8 -3 -28 -12 -43 -20 -16 -7 -36 -14 -46 -14 -9 0 -22 -5 -29 -12
-12 -12 -71 -36 -112 -45 -14 -3 -34 -12 -45 -19 -11 -8 -29 -14 -40 -14 -11
0 -29 -7 -39 -15 -11 -8 -32 -15 -46 -15 -14 0 -31 -5 -37 -11 -6 -6 -29 -15
-50 -19 -21 -5 -51 -13 -68 -18 -70 -24 -112 -36 -150 -43 -48 -9 -117 -27
-165 -42 -19 -6 -55 -14 -80 -18 -51 -8 -134 -24 -231 -45 -37 -8 -84 -14
-105 -14 -22 0 -64 -7 -94 -15 -30 -8 -81 -15 -112 -15 l-58 0 0 -53 c0 -29
-7 -79 -15 -110 -8 -32 -15 -70 -15 -85 0 -15 -6 -47 -14 -72 -8 -25 -22 -72
-31 -105 -9 -33 -23 -73 -31 -88 -8 -16 -14 -37 -14 -47 0 -9 -7 -23 -15 -30
-8 -7 -15 -23 -15 -35 0 -12 -7 -28 -15 -35 -8 -7 -15 -21 -15 -31 0 -10 -5
-21 -11 -24 -5 -4 -15 -17 -20 -28 -5 -12 -18 -35 -29 -52 -11 -16 -24 -40
-30 -52 -5 -13 -14 -23 -20 -23 -5 0 -10 -5 -10 -11 0 -18 -58 -88 -161 -194
-109 -111 -139 -147 -139 -167 0 -7 -7 -22 -15 -32 -12 -15 -15 -52 -15 -155
0 -75 -4 -142 -8 -149 -6 -9 -37 -12 -118 -10 l-109 3 -3 119 c-3 120 7 174
44 249 8 16 14 36 14 45 0 9 6 37 14 62 38 119 48 261 44 665 l-3 390 -95 5
c-52 3 -103 2 -112 -2 -15 -7 -17 -48 -20 -455 -3 -393 -5 -452 -20 -483 -9
-19 -19 -51 -22 -70 -4 -19 -13 -44 -21 -54 -14 -18 -16 -18 -52 10 -21 16
-48 40 -61 54 -13 14 -40 43 -61 65 -90 97 -169 215 -234 350 -69 142 -92 200
-107 265 -4 19 -13 48 -19 63 -6 16 -11 42 -11 58 0 17 -5 39 -11 51 -6 11
-14 59 -17 106 l-7 86 -75 13 c-41 7 -109 17 -150 22 -41 5 -102 15 -135 21
-110 21 -199 39 -250 50 -27 6 -71 15 -97 20 -26 5 -56 13 -67 19 -11 6 -32
11 -46 11 -15 0 -41 6 -58 14 -18 8 -45 16 -62 19 -16 3 -43 9 -60 15 -83 28
-102 34 -130 42 -16 5 -55 18 -85 30 -30 12 -64 24 -75 27 -11 3 -33 11 -50
18 -16 7 -50 21 -75 30 -25 9 -52 21 -60 26 -8 5 -22 12 -30 15 -27 10 -85 36
-100 45 -8 5 -22 12 -30 15 -31 13 -97 47 -155 79 -33 19 -69 39 -80 45 -64
35 -145 90 -245 165 -102 78 -213 172 -218 186 -19 49 -22 -63 -19 -688z"/>
</g>
</svg>
