<svg version="1.0" xmlns="http://www.w3.org/2000/svg"
 width="500.000000pt" height="500.000000pt" viewBox="0 0 675.000000 675.000000"
 preserveAspectRatio="xMidYMid meet">
<metadata>
Created by potrace 1.10, written by Peter Selinger 2001-2011
</metadata>
<g transform="translate(0.000000,675.000000) scale(0.100000,-0.100000)"
fill="#F56204" stroke="none">
<path d="M0 3375 l0 -3375 3375 0 3375 0 0 3375 0 3375 -3375 0 -3375 0 0
-3375z m3525 3183 c64 -39 425 -396 425 -421 0 -10 -26 -57 -57 -105 -32 -48
-60 -91 -62 -97 -2 -5 -17 -26 -32 -46 -16 -20 -29 -39 -29 -42 0 -3 -19 -34
-42 -69 -52 -77 -64 -97 -77 -125 -6 -13 -15 -23 -21 -23 -5 0 -10 -5 -10 -11
0 -5 -26 -49 -57 -97 -32 -48 -60 -91 -62 -96 -2 -4 -23 -37 -47 -72 -24 -35
-44 -67 -44 -70 0 -3 -13 -23 -28 -43 -16 -20 -32 -43 -35 -51 -4 -8 -16 -28
-27 -45 -11 -16 -26 -42 -35 -57 -18 -32 -10 -30 -136 -28 -96 2 -146 -11
-192 -49 -22 -18 -83 -16 -113 4 -13 8 -28 15 -34 15 -5 0 -40 14 -77 31 -109
49 -124 55 -208 89 -93 38 -140 58 -177 77 -14 7 -33 13 -41 13 -8 0 -20 7
-27 15 -7 8 -21 15 -30 15 -10 0 -31 6 -47 14 -15 7 -46 21 -68 31 -22 9 -53
23 -68 31 -16 8 -35 14 -43 14 -8 0 -14 6 -14 13 0 19 1138 1150 1190 1183 85
53 238 54 325 2z m1221 -1284 c-18 -86 -35 -188 -46 -279 -5 -38 -14 -86 -19
-105 -6 -19 -11 -51 -11 -70 0 -19 -6 -68 -14 -110 -36 -188 -46 -249 -46
-273 0 -43 -10 -55 -70 -86 l-59 -31 -108 46 c-59 25 -112 50 -117 55 -6 5
-18 9 -27 9 -10 0 -30 6 -46 14 -28 14 -70 33 -138 61 -39 17 -93 40 -142 61
-77 33 -163 70 -211 90 -67 28 -108 46 -135 60 -16 8 -35 14 -42 14 -19 0 -45
39 -45 67 0 13 -11 46 -25 75 l-25 51 27 46 c15 25 46 74 70 109 24 35 43 65
43 67 0 2 20 33 45 69 25 37 45 68 45 71 0 3 20 34 45 71 25 36 45 70 45 75 0
5 7 12 15 15 8 4 15 12 15 19 0 6 14 31 30 53 17 23 30 45 30 48 0 3 14 23 30
44 17 21 30 40 30 43 0 3 19 34 42 69 52 77 64 97 77 126 6 12 14 22 18 22 5
0 14 14 22 30 7 17 25 45 39 61 l25 31 324 -324 324 -324 -15 -70z m-2829 -78
c15 -7 43 -21 61 -30 19 -9 39 -16 47 -16 7 0 18 -7 25 -15 7 -8 21 -15 30
-15 10 0 31 -6 47 -14 36 -17 83 -38 153 -66 30 -12 78 -32 105 -45 28 -12 86
-37 130 -55 44 -18 95 -39 112 -46 18 -8 50 -22 70 -31 21 -9 54 -24 73 -34
l35 -18 5 -100 c3 -60 10 -105 18 -113 6 -6 12 -20 12 -30 0 -10 4 -18 9 -18
5 0 19 -15 31 -34 l21 -35 -46 -66 c-25 -36 -45 -68 -45 -70 0 -1 -33 -52 -73
-111 -40 -60 -76 -116 -80 -124 -12 -23 -26 -45 -102 -160 -39 -58 -72 -109
-74 -115 -2 -5 -16 -26 -31 -45 -15 -19 -30 -42 -33 -50 -4 -8 -16 -28 -27
-45 -11 -16 -25 -40 -31 -52 -7 -13 -15 -23 -19 -23 -4 0 -11 -8 -14 -17 -8
-21 -18 -38 -74 -121 -23 -35 -42 -66 -42 -69 0 -3 -13 -22 -30 -43 -16 -21
-30 -42 -30 -46 -1 -5 -11 -21 -23 -36 -21 -26 -25 -27 -62 -17 -22 6 -64 8
-96 5 l-57 -7 -46 60 c-25 33 -46 63 -46 66 0 4 -14 24 -30 45 -16 21 -30 43
-30 49 0 6 -3 11 -8 11 -6 0 -103 138 -172 245 -8 13 -42 62 -75 110 -33 47
-64 94 -70 103 -5 9 -12 19 -15 22 -3 3 -15 19 -27 36 -50 72 -129 187 -143
209 -38 60 -96 143 -122 176 -15 20 -28 45 -28 56 0 11 145 164 363 384 391
395 383 389 454 355z m3327 -335 c159 -159 288 -293 287 -297 -1 -9 -38 -30
-106 -59 -22 -9 -53 -23 -68 -31 -16 -8 -33 -14 -38 -14 -5 0 -37 -13 -71 -29
-35 -15 -99 -43 -143 -61 -85 -34 -139 -57 -167 -71 -28 -14 -43 -11 -68 16
-13 14 -29 25 -36 25 -25 0 -36 38 -25 88 14 64 30 162 41 253 5 41 14 88 20
103 5 15 10 46 10 69 0 23 5 58 10 77 6 19 15 73 21 119 10 91 14 101 32 101
7 0 143 -130 301 -289z m-1730 -344 c32 -15 64 -27 71 -27 7 0 18 -7 25 -15 7
-8 21 -15 30 -15 10 0 31 -6 47 -14 26 -13 51 -24 138 -61 83 -35 102 -42 135
-57 19 -8 51 -21 70 -30 19 -8 51 -21 70 -30 33 -14 70 -30 143 -62 17 -7 55
-23 82 -34 42 -17 50 -25 53 -49 5 -46 -14 -83 -42 -83 -13 0 -29 -7 -36 -15
-7 -8 -18 -15 -25 -15 -8 0 -26 -6 -42 -14 -15 -7 -44 -20 -63 -28 -19 -8 -53
-23 -75 -32 -22 -10 -56 -25 -75 -33 -19 -8 -51 -22 -70 -30 -19 -8 -48 -21
-65 -28 -16 -7 -55 -23 -85 -35 -30 -12 -59 -26 -65 -31 -5 -5 -18 -9 -30 -9
-12 0 -25 -4 -30 -9 -6 -5 -82 -39 -170 -76 -88 -37 -182 -78 -210 -90 -27
-13 -75 -33 -105 -45 -30 -12 -71 -29 -90 -38 -19 -8 -48 -21 -65 -28 -16 -7
-60 -27 -98 -43 -37 -17 -71 -31 -76 -31 -5 0 -22 -6 -38 -14 -15 -7 -45 -21
-65 -30 -21 -9 -54 -23 -73 -31 -38 -17 -86 -37 -137 -58 -18 -8 -50 -21 -70
-30 -21 -9 -55 -24 -75 -33 -21 -10 -46 -21 -55 -25 -23 -11 -48 -11 -48 -1 0
5 14 28 30 50 17 23 30 45 30 48 0 3 13 23 28 43 16 20 32 43 36 51 11 24 29
53 56 90 26 37 45 65 57 90 4 8 26 43 50 78 24 35 43 66 43 69 0 3 14 22 30
43 17 21 30 40 30 43 0 3 19 34 42 69 52 77 64 97 77 126 6 12 15 22 20 22 5
0 12 8 15 18 7 20 16 34 71 117 22 33 42 65 45 70 17 34 107 161 118 169 8 4
47 9 88 11 92 3 149 30 223 102 29 30 57 52 60 51 3 -2 32 -16 65 -31z m2611
-539 c425 -428 487 -500 457 -530 -10 -10 -19 -9 -45 3 -60 29 -136 62 -262
114 -49 20 -94 41 -99 46 -6 5 -18 9 -27 9 -10 0 -30 6 -46 14 -27 14 -72 34
-143 63 -74 31 -102 43 -138 59 -20 9 -50 22 -67 28 -16 7 -47 20 -68 29 -20
9 -53 23 -72 31 -20 9 -50 22 -68 30 -17 7 -68 28 -112 46 -93 38 -140 58
-177 77 -14 7 -33 13 -41 13 -8 0 -20 7 -27 15 -7 8 -23 15 -36 15 -12 0 -26
4 -29 10 -3 5 -24 14 -45 20 -46 12 -72 47 -43 56 10 3 34 12 53 21 41 18 92
40 138 59 18 7 47 20 65 28 17 7 68 28 112 46 44 18 95 39 112 46 18 8 50 22
70 31 21 9 49 22 63 29 14 8 32 14 40 14 9 0 205 -190 435 -422z m-5172 315
c8 -10 44 -61 80 -113 35 -52 88 -130 118 -173 30 -43 59 -86 64 -95 6 -9 13
-19 16 -22 4 -3 36 -48 71 -100 36 -52 89 -130 119 -173 30 -43 59 -86 64 -95
6 -9 14 -20 18 -23 5 -4 14 -16 20 -27 7 -12 36 -56 66 -99 97 -138 131 -192
131 -203 0 -6 -17 -31 -37 -56 -37 -44 -38 -44 -88 -38 -27 3 -66 10 -85 16
-19 6 -57 14 -85 18 -27 4 -70 12 -95 18 -43 10 -91 21 -265 56 -44 9 -98 22
-120 27 -22 6 -65 14 -97 19 -31 4 -61 11 -68 15 -7 4 -37 11 -68 15 -32 5
-75 13 -97 18 -22 6 -78 18 -125 27 -47 9 -103 21 -125 27 -22 5 -65 14 -95
19 -30 5 -73 15 -95 23 -39 14 -40 15 -37 58 2 25 16 64 34 93 18 29 180 200
387 408 196 196 358 362 359 367 5 15 17 12 35 -7z m4005 -386 c15 -8 42 -21
60 -30 19 -9 38 -17 43 -17 5 0 39 -14 76 -31 109 -49 124 -55 208 -89 101
-41 130 -53 180 -75 80 -36 111 -49 143 -62 41 -17 93 -39 137 -57 20 -9 51
-22 70 -30 20 -9 50 -22 68 -29 119 -52 181 -77 192 -77 7 0 18 -7 25 -15 7
-8 21 -15 30 -15 10 0 31 -6 47 -14 26 -13 51 -24 138 -61 167 -70 185 -79
185 -99 0 -12 -179 -199 -473 -494 l-473 -474 -60 15 c-62 16 -149 34 -199 43
-16 3 -60 12 -97 19 -38 8 -98 21 -135 29 -148 31 -230 48 -268 58 -22 5 -65
13 -95 18 -99 15 -113 24 -133 88 -11 33 -35 77 -59 105 -35 42 -39 53 -35 85
19 140 29 195 37 218 6 14 10 44 10 68 0 23 7 68 15 99 8 32 15 72 15 90 0 17
6 65 14 107 8 41 22 120 31 175 9 55 21 125 27 155 6 30 13 80 17 110 7 61 16
80 35 80 31 0 127 52 158 84 38 41 33 40 66 23z m-453 -61 c13 -20 14 -32 6
-63 -11 -43 -38 -202 -52 -309 -5 -40 -13 -84 -19 -99 -5 -14 -10 -45 -10 -68
0 -23 -5 -58 -11 -77 -5 -19 -14 -66 -19 -105 -13 -108 -30 -214 -46 -282 -8
-34 -14 -74 -14 -88 0 -14 -6 -27 -12 -30 -108 -34 -143 -52 -184 -93 -24 -25
-44 -49 -44 -54 0 -12 -94 -10 -127 3 -15 6 -53 15 -83 19 -30 4 -75 12 -100
18 -25 6 -81 18 -125 27 -44 9 -98 21 -120 27 -22 5 -62 13 -90 17 -27 5 -70
13 -95 19 -25 6 -81 18 -125 27 -44 9 -109 22 -145 29 -36 8 -99 21 -140 29
-41 9 -97 21 -125 27 -27 6 -63 13 -80 16 -33 5 -118 23 -238 51 -69 15 -80
21 -98 50 -23 37 -14 67 23 78 13 4 38 13 56 21 17 8 49 21 70 30 20 9 50 22
65 30 16 8 37 14 47 14 9 0 23 7 30 15 7 8 19 15 26 15 8 0 42 13 76 29 35 15
88 38 118 51 30 12 78 32 105 45 28 12 86 37 130 55 44 18 94 38 110 46 17 7
55 24 85 37 30 14 80 35 110 47 30 12 70 29 87 36 18 8 48 21 68 30 19 8 52
22 72 31 21 9 52 22 68 29 38 15 89 37 140 60 22 9 55 24 72 31 71 30 99 42
133 56 19 8 52 22 73 31 20 9 54 23 75 32 20 9 53 23 72 32 19 8 44 19 55 25
64 32 110 33 130 3z m-4130 -721 c62 -16 144 -34 210 -44 28 -4 70 -13 95 -19
121 -29 187 -42 206 -42 12 0 44 -6 70 -14 56 -16 136 -33 209 -45 28 -4 70
-13 95 -19 94 -23 187 -42 232 -48 48 -6 75 -25 63 -44 -3 -5 -14 -10 -24 -10
-9 0 -26 -7 -37 -15 -10 -8 -28 -15 -39 -15 -12 0 -25 -4 -30 -9 -6 -5 -50
-26 -100 -46 -49 -20 -105 -44 -122 -51 -18 -8 -48 -21 -68 -30 -19 -8 -50
-21 -70 -30 -44 -18 -96 -40 -137 -57 -18 -8 -50 -22 -71 -32 l-38 -19 -295
295 c-162 161 -294 300 -294 307 0 15 60 10 145 -13z m2035 -420 c14 -8 43
-15 65 -15 22 -1 58 -7 80 -15 22 -8 52 -15 68 -15 15 0 53 -6 85 -14 31 -8
93 -22 137 -31 44 -9 98 -20 120 -26 22 -5 68 -14 103 -19 35 -6 72 -15 82
-20 10 -6 34 -10 54 -10 19 0 47 -5 63 -11 15 -6 53 -15 83 -19 30 -4 75 -12
100 -18 25 -6 81 -18 125 -27 44 -9 98 -21 120 -27 22 -5 68 -14 102 -18 35
-5 72 -14 82 -20 11 -5 37 -10 58 -11 61 0 127 -30 131 -59 5 -32 65 -108 110
-139 52 -36 62 -51 51 -79 -5 -13 -9 -37 -9 -54 0 -16 -6 -60 -14 -97 -18 -82
-36 -187 -45 -266 -4 -33 -13 -87 -19 -120 -6 -33 -18 -100 -26 -150 -28 -171
-46 -280 -56 -340 -6 -33 -15 -91 -20 -130 -5 -38 -14 -86 -19 -105 -6 -19
-11 -52 -11 -73 0 -21 -7 -68 -16 -105 -15 -60 -23 -74 -82 -134 -36 -37 -69
-65 -73 -62 -12 7 -69 94 -69 105 0 5 -4 9 -9 9 -7 0 -63 78 -106 148 -5 9
-29 42 -52 74 -24 31 -43 61 -43 66 0 6 -3 12 -7 14 -12 5 -53 66 -53 78 0 5
-4 10 -9 10 -7 0 -63 78 -106 148 -5 9 -29 42 -52 74 -24 31 -43 61 -43 66 0
6 -3 12 -7 14 -12 5 -53 66 -53 78 0 5 -4 10 -9 10 -7 0 -37 42 -111 155 -8
13 -42 62 -75 110 -33 47 -64 94 -70 103 -5 9 -15 21 -21 27 -10 9 -56 75
-104 150 -8 13 -42 62 -75 110 -33 47 -64 94 -70 103 -5 9 -13 19 -16 22 -4 3
-36 48 -71 100 -36 52 -89 130 -119 173 -30 43 -58 86 -64 95 -5 9 -13 19 -17
22 -17 14 -78 114 -78 130 0 11 10 26 22 34 27 19 26 19 58 1z m-728 -42 c21
-19 23 -36 6 -55 -17 -19 -36 -48 -48 -75 -5 -13 -14 -23 -20 -23 -5 0 -10 -5
-10 -11 0 -6 -13 -31 -30 -56 -16 -24 -30 -47 -30 -50 0 -3 -13 -22 -30 -43
-16 -21 -30 -40 -30 -43 0 -3 -19 -34 -42 -69 -52 -77 -64 -97 -77 -125 -6
-13 -15 -23 -20 -23 -5 0 -11 -9 -14 -21 -3 -12 -12 -19 -22 -17 -16 3 -335
316 -335 329 0 11 48 39 68 39 11 0 25 7 32 15 7 8 19 15 26 15 8 0 43 14 77
30 35 17 67 30 70 30 4 0 35 13 69 29 35 15 115 49 178 75 63 26 122 52 130
56 22 13 32 12 52 -7z m501 -150 c8 -10 45 -63 82 -118 37 -55 80 -116 95
-135 15 -19 35 -51 46 -70 10 -19 24 -39 30 -45 6 -5 24 -30 41 -55 16 -25 54
-80 84 -123 30 -43 59 -86 64 -95 6 -9 12 -19 15 -22 15 -15 50 -71 50 -80 0
-5 4 -10 9 -10 4 0 36 -42 69 -92 34 -51 88 -131 122 -178 33 -47 63 -92 67
-100 4 -8 10 -17 14 -20 4 -3 36 -48 71 -100 36 -52 89 -130 119 -173 30 -43
59 -86 64 -95 6 -9 28 -41 50 -72 44 -61 112 -158 135 -195 8 -13 42 -63 75
-110 33 -48 65 -94 70 -103 6 -10 12 -19 15 -22 14 -14 50 -70 50 -79 0 -5 6
-11 13 -14 6 -2 22 -23 35 -46 l23 -41 -58 -59 c-32 -32 -82 -73 -112 -91 -51
-32 -58 -33 -155 -33 -93 0 -106 2 -151 28 -34 19 -324 302 -902 879 -769 767
-851 852 -838 866 8 9 15 19 15 23 0 3 19 34 42 69 52 77 64 97 77 126 6 12
15 22 21 22 5 0 10 5 10 11 0 5 26 49 58 97 31 48 59 92 62 97 3 6 26 43 53
82 l47 71 123 -1 c77 -1 129 3 142 11 28 16 39 15 58 -5z m2541 -289 c27 -8
61 -14 74 -14 14 0 48 -6 76 -14 58 -16 138 -33 211 -45 28 -4 70 -13 95 -19
25 -6 83 -19 130 -27 47 -9 95 -19 108 -21 17 -3 21 -8 14 -20 -16 -29 -1167
-1174 -1179 -1174 -10 0 -12 12 -8 43 7 51 30 190 46 272 6 33 15 92 19 132 5
40 12 78 16 84 4 7 11 46 15 88 4 42 12 101 18 131 6 30 17 98 26 150 8 52 20
122 26 155 6 33 14 88 17 123 6 53 12 66 37 87 17 13 34 24 39 25 5 0 26 16
47 35 36 32 43 35 82 29 23 -3 64 -12 91 -20z"/>
</g>
</svg>
