<svg version="1.0" xmlns="http://www.w3.org/2000/svg"
 width="675.000000pt" height="675.000000pt" viewBox="0 0 675.000000 675.000000"
 preserveAspectRatio="xMidYMid meet">
<metadata>
Created by potrace 1.10, written by Peter Selinger 2001-2011
</metadata>
<g transform="translate(0.000000,675.000000) scale(0.100000,-0.100000)"
fill="#F56204" stroke="none">
<path d="M1045 5780 c-100 -14 -153 -42 -242 -124 -69 -64 -109 -135 -129
-226 -18 -80 -18 -4050 0 -4130 20 -91 60 -162 129 -226 73 -67 86 -76 165
-107 l57 -22 2340 0 c1976 0 2345 2 2375 14 88 35 129 60 187 115 69 64 109
136 129 226 18 80 18 4050 0 4130 -20 91 -60 162 -129 226 -70 65 -83 74 -159
106 l-53 23 -2310 1 c-1270 1 -2332 -2 -2360 -6z m4273 -463 c15 -8 44 -22 65
-33 72 -34 187 -156 187 -198 0 -6 5 -17 11 -23 5 -5 17 -41 25 -79 21 -103
21 -3135 0 -3238 -8 -38 -20 -74 -25 -79 -6 -6 -11 -17 -11 -23 0 -42 -115
-164 -187 -198 -21 -11 -50 -25 -65 -33 -39 -20 -3874 -20 -3903 1 -11 7 -32
16 -47 20 -16 3 -28 11 -28 16 0 6 -6 10 -12 10 -34 0 -168 147 -168 184 0 6
-5 17 -11 23 -5 5 -17 41 -25 79 -21 103 -21 3135 0 3238 8 38 20 74 25 79 6
6 11 17 11 23 0 37 133 184 166 184 8 0 14 4 14 10 0 5 12 13 28 16 15 4 36
13 47 20 29 21 3864 21 3903 1z"/>
<path d="M1673 4484 c-117 -118 -213 -216 -213 -218 0 -3 232 -236 515 -519
283 -284 515 -519 515 -524 0 -4 -229 -238 -510 -518 -280 -280 -510 -517
-510 -525 0 -8 95 -109 210 -224 180 -179 213 -208 230 -200 25 11 1470 1455
1470 1469 0 17 -1464 1475 -1480 1474 -8 -1 -111 -98 -227 -215z"/>
<path d="M4327 2512 l-827 -2 2 -343 3 -342 840 0 840 0 3 337 c2 314 1 338
-15 345 -10 4 -390 7 -846 5z"/>
</g>
</svg>
