<svg version="1.0" xmlns="http://www.w3.org/2000/svg"
 width="567.000000pt" height="546.000000pt" viewBox="0 0 567.000000 546.000000"
 preserveAspectRatio="xMidYMid meet">
<metadata>
Created by potrace 1.10, written by Peter Selinger 2001-2011
</metadata>
<g transform="translate(0.000000,546.000000) scale(0.100000,-0.100000)"
fill="#F56204" stroke="none">
<path d="M3140 3795 c-459 -459 -841 -835 -849 -835 -12 0 -85 51 -106 75 -5
6 -55 46 -110 88 -204 156 -310 239 -315 246 -3 4 -61 49 -130 101 -69 51
-129 98 -135 104 -5 7 -48 41 -95 76 -47 35 -87 67 -90 70 -14 17 -70 50 -86
50 -10 0 -72 -26 -138 -59 -67 -32 -156 -75 -199 -95 l-77 -37 2 -1056 3
-1055 70 -35 c39 -19 77 -39 85 -44 8 -4 70 -36 138 -70 l123 -61 112 86 c62
47 186 142 277 211 91 69 176 136 190 149 14 12 81 64 150 116 69 52 130 99
135 105 6 7 50 42 99 79 69 53 93 66 107 59 10 -4 380 -368 822 -808 442 -440
813 -808 824 -818 20 -17 23 -17 72 -1 28 9 54 20 57 25 3 5 14 9 24 9 10 0
31 6 47 14 15 8 48 22 73 31 54 21 105 42 143 61 16 8 35 14 42 14 7 0 26 6
42 14 15 8 48 22 73 31 54 21 105 42 143 61 16 8 35 14 42 14 7 0 27 7 44 15
17 8 45 22 62 30 17 8 37 15 44 15 7 0 26 6 42 14 15 8 49 24 76 36 l47 21 0
1684 0 1683 -47 22 c-27 11 -61 28 -76 35 -16 8 -36 15 -45 15 -9 0 -26 7 -36
15 -11 8 -28 15 -37 15 -10 0 -30 6 -46 14 -44 22 -134 61 -213 91 -25 9 -58
23 -75 30 -16 7 -50 20 -75 30 -25 9 -58 23 -73 31 -16 8 -35 14 -42 14 -7 0
-26 6 -42 14 -15 7 -45 21 -66 30 -20 8 -52 22 -70 29 -57 25 -88 37 -95 37
-4 0 -383 -376 -842 -835z m828 -2119 c-6 -8 -73 27 -80 42 -2 4 -32 30 -68
57 -36 27 -69 54 -75 61 -5 6 -46 39 -90 72 -44 34 -132 102 -195 152 -63 50
-151 118 -195 152 -44 33 -84 66 -90 72 -5 7 -48 41 -94 76 -95 71 -99 75
-159 127 l-43 38 66 50 c36 28 84 64 105 80 21 17 76 59 122 95 46 35 88 69
93 76 6 6 38 32 73 59 35 26 75 58 89 71 14 13 30 24 34 24 5 0 17 8 27 18 10
10 56 47 103 82 46 35 89 69 94 76 6 6 38 32 73 59 35 26 75 58 89 71 14 13
47 38 72 55 l46 30 5 -843 c3 -464 2 -847 -2 -852z m-2411 1152 c236 -236 300
-305 293 -317 -5 -9 -70 -79 -145 -156 -391 -402 -466 -477 -471 -473 -3 4 -7
1090 -4 1246 0 20 73 -47 327 -300z"/>
</g>
</svg>